<svg id="svg" version="1.1" width="400" height="400" viewBox="0 0 400 400" xmlns="http://www.w3.org/2000/svg" xmlns:xlink="http://www.w3.org/1999/xlink" ><g id="svgg"><path id="path0" d="M146.800 43.445 C 146.250 43.538,144.990 43.995,144.000 44.461 C 143.010 44.928,141.390 45.668,140.400 46.105 C 139.410 46.543,138.150 47.144,137.600 47.441 C 137.050 47.737,135.875 48.321,134.988 48.738 C 133.098 49.627,125.763 56.511,122.754 60.219 L 120.660 62.800 110.830 62.818 C 102.931 62.832,100.686 62.957,99.400 63.456 C 98.520 63.797,96.810 64.348,95.600 64.680 C 94.390 65.012,92.552 65.890,91.516 66.630 C 90.479 67.370,88.991 68.244,88.209 68.570 C 85.538 69.687,74.000 81.938,74.000 83.658 C 74.000 83.888,73.618 84.613,73.150 85.270 C 72.683 85.926,72.135 87.214,71.931 88.131 C 71.728 89.049,71.204 90.545,70.767 91.455 C 70.088 92.870,69.936 94.281,69.723 101.155 C 69.504 108.224,69.395 109.200,68.821 109.200 C 68.463 109.200,67.463 109.560,66.600 110.000 C 65.737 110.440,64.754 110.801,64.415 110.802 C 64.077 110.803,63.080 111.248,62.200 111.790 C 61.320 112.332,60.313 112.781,59.962 112.788 C 59.611 112.794,59.007 113.150,58.621 113.577 C 58.234 114.005,57.363 114.476,56.686 114.625 C 55.049 114.985,44.736 125.146,43.720 127.400 C 43.323 128.280,42.343 129.990,41.542 131.200 C 40.741 132.410,39.960 134.030,39.808 134.800 C 39.655 135.570,39.200 136.920,38.797 137.800 C 37.289 141.089,37.398 159.465,38.946 162.893 C 39.271 163.612,39.665 164.650,39.823 165.200 C 39.981 165.750,40.445 166.629,40.855 167.154 C 42.079 168.721,41.772 169.326,37.761 173.247 C 33.643 177.274,29.200 182.523,29.200 183.362 C 29.200 183.645,28.844 184.199,28.408 184.593 C 27.972 184.987,27.504 185.903,27.368 186.629 C 27.232 187.354,26.779 188.257,26.360 188.636 C 25.942 189.014,25.600 189.680,25.600 190.115 C 25.600 190.550,25.259 191.467,24.842 192.153 C 24.426 192.839,23.953 194.206,23.792 195.191 C 23.631 196.176,23.207 197.428,22.849 197.972 C 21.755 199.640,21.659 219.022,22.734 221.323 C 23.165 222.245,23.636 223.971,23.780 225.158 C 23.925 226.345,24.374 227.965,24.778 228.758 C 25.182 229.551,26.106 231.460,26.830 233.000 C 27.554 234.540,28.717 236.520,29.414 237.400 C 30.111 238.280,30.978 239.575,31.340 240.279 C 32.221 241.990,38.635 248.694,40.131 249.468 C 40.786 249.807,42.199 250.740,43.272 251.542 L 45.221 253.000 45.016 255.310 C 44.903 256.581,44.501 258.201,44.123 258.910 C 43.135 260.766,43.066 274.916,44.038 276.415 C 44.389 276.957,44.800 278.660,44.951 280.200 C 45.117 281.898,45.511 283.395,45.952 284.003 C 46.353 284.554,46.806 285.846,46.960 286.874 C 47.114 287.903,47.591 289.190,48.020 289.735 C 48.449 290.280,48.800 290.977,48.800 291.284 C 48.800 291.788,50.989 295.112,51.642 295.600 C 51.790 295.710,52.175 296.430,52.499 297.200 C 53.532 299.654,63.242 309.129,66.042 310.416 C 66.569 310.658,67.900 311.379,69.000 312.020 C 70.100 312.660,71.450 313.382,72.000 313.625 C 72.550 313.868,73.640 314.397,74.422 314.800 C 75.205 315.204,76.555 315.657,77.422 315.808 C 78.290 315.958,79.747 316.430,80.660 316.857 C 82.083 317.522,83.536 317.663,90.848 317.847 C 100.507 318.089,99.827 317.950,100.165 319.755 C 100.306 320.505,100.765 321.556,101.186 322.091 C 101.606 322.626,102.068 323.531,102.211 324.102 C 102.355 324.674,102.816 325.452,103.236 325.833 C 103.656 326.213,104.000 326.757,104.000 327.041 C 104.000 328.515,113.538 338.418,117.416 340.969 C 118.727 341.831,120.277 342.858,120.860 343.251 C 121.443 343.643,122.380 344.080,122.943 344.222 C 123.507 344.363,124.167 344.719,124.411 345.014 C 124.655 345.308,125.405 345.669,126.077 345.817 C 126.749 345.965,127.862 346.412,128.549 346.811 C 129.237 347.210,130.880 347.666,132.200 347.826 C 133.520 347.985,135.042 348.404,135.583 348.758 C 137.049 349.716,156.151 349.717,157.618 348.759 C 158.158 348.406,159.473 347.987,160.541 347.828 C 161.608 347.669,163.048 347.193,163.741 346.771 C 164.433 346.349,165.378 346.002,165.840 346.001 C 166.825 346.000,171.506 343.608,173.800 341.934 C 174.680 341.292,176.260 340.214,177.310 339.539 C 179.753 337.969,185.163 332.560,186.753 330.098 C 187.427 329.054,188.119 328.020,188.289 327.800 C 189.954 325.653,190.733 324.444,190.995 323.600 C 191.165 323.050,191.626 322.144,192.018 321.586 C 192.410 321.029,192.859 319.859,193.014 318.986 C 193.170 318.114,193.627 316.853,194.029 316.185 C 194.431 315.517,194.887 313.717,195.042 312.185 C 195.197 310.653,195.611 308.958,195.962 308.418 C 196.520 307.559,196.615 304.946,196.717 287.518 L 196.835 267.600 199.997 267.600 L 203.159 267.600 203.279 287.518 C 203.389 305.691,203.461 307.530,204.100 308.504 C 204.485 309.091,204.804 310.163,204.810 310.886 C 204.824 312.753,205.552 315.681,206.180 316.394 C 206.473 316.727,206.844 317.810,207.005 318.800 C 207.166 319.790,207.612 321.050,207.996 321.600 C 208.381 322.150,208.820 323.004,208.974 323.497 C 209.127 323.990,209.960 325.290,210.826 326.385 C 211.692 327.480,212.400 328.552,212.400 328.767 C 212.400 329.928,219.938 337.738,222.934 339.681 C 223.850 340.275,225.408 341.355,226.396 342.081 C 228.469 343.604,233.091 345.957,234.060 345.982 C 234.423 345.992,235.683 346.448,236.860 346.996 C 238.037 347.544,239.545 347.994,240.211 347.996 C 240.877 347.998,241.867 348.315,242.411 348.700 C 243.837 349.709,262.874 349.763,264.417 348.762 C 264.958 348.412,266.476 348.000,267.791 347.848 C 269.106 347.696,270.731 347.247,271.403 346.851 C 272.074 346.455,273.158 345.997,273.812 345.834 C 274.465 345.671,275.270 345.303,275.600 345.016 C 275.930 344.729,276.650 344.358,277.200 344.192 C 281.249 342.964,296.000 329.653,296.000 327.227 C 296.000 326.946,296.450 326.181,297.000 325.527 C 297.550 324.873,298.000 324.090,298.000 323.787 C 298.000 323.484,298.450 322.572,299.000 321.762 C 299.550 320.951,300.000 319.876,300.000 319.371 C 300.000 318.107,300.304 318.058,309.545 317.829 C 316.661 317.653,317.902 317.525,319.371 316.814 C 320.296 316.366,321.509 316.000,322.067 316.000 C 322.624 316.000,323.927 315.550,324.962 315.000 C 325.996 314.450,327.079 314.000,327.367 314.000 C 327.656 314.000,328.336 313.651,328.878 313.225 C 329.420 312.798,330.337 312.331,330.915 312.186 C 331.494 312.040,332.169 311.678,332.416 311.381 C 332.663 311.083,333.705 310.436,334.732 309.943 C 337.203 308.757,346.547 299.505,347.440 297.361 C 347.797 296.503,348.210 295.710,348.358 295.600 C 348.997 295.122,351.200 291.794,351.200 291.305 C 351.200 291.009,351.565 290.274,352.011 289.671 C 352.457 289.067,352.930 287.860,353.063 286.987 C 353.195 286.114,353.631 284.853,354.032 284.185 C 354.433 283.517,354.887 281.717,355.042 280.185 C 355.197 278.653,355.611 276.958,355.962 276.418 C 356.910 274.959,356.900 261.825,355.950 260.373 C 355.565 259.786,355.197 258.075,355.049 256.190 L 354.798 253.000 356.738 251.542 C 357.805 250.740,359.201 249.812,359.839 249.479 C 361.221 248.760,367.200 242.698,367.200 242.016 C 367.200 241.755,368.212 240.348,369.448 238.891 C 370.685 237.433,372.033 235.511,372.443 234.620 C 372.854 233.729,373.361 232.730,373.571 232.400 C 374.649 230.701,376.079 226.765,376.258 225.000 C 376.370 223.900,376.849 222.280,377.323 221.400 C 378.643 218.948,378.657 201.164,377.342 198.400 C 376.870 197.410,376.370 195.811,376.229 194.846 C 376.088 193.882,375.619 192.642,375.187 192.092 C 374.754 191.542,374.400 190.700,374.400 190.221 C 374.400 189.743,374.061 188.987,373.646 188.542 C 373.232 188.097,372.772 187.182,372.624 186.508 C 372.476 185.834,372.005 184.966,371.577 184.579 C 371.150 184.193,370.800 183.669,370.800 183.417 C 370.800 182.500,368.140 179.296,363.321 174.409 C 358.399 169.416,357.878 168.579,358.998 167.459 C 359.840 166.617,360.400 164.985,360.400 163.374 C 360.400 162.618,360.558 162.000,360.751 162.000 C 362.473 162.000,363.010 140.770,361.359 137.977 C 360.896 137.195,360.386 135.850,360.224 134.989 C 359.938 133.460,358.309 130.197,357.434 129.400 C 357.193 129.180,356.816 128.496,356.598 127.879 C 355.760 125.518,345.619 115.392,343.372 114.673 C 342.727 114.467,341.828 113.961,341.374 113.549 C 340.920 113.137,340.335 112.800,340.074 112.800 C 339.814 112.800,338.745 112.359,337.700 111.820 C 335.203 110.531,331.811 109.200,331.026 109.200 C 330.486 109.200,330.398 108.362,330.387 103.100 C 330.372 96.068,329.921 91.828,329.086 90.870 C 328.764 90.502,328.373 89.480,328.217 88.600 C 327.908 86.867,327.023 85.034,324.838 81.600 C 322.946 78.628,313.684 69.361,311.831 68.587 C 311.027 68.251,309.521 67.370,308.484 66.630 C 307.448 65.890,305.610 65.012,304.400 64.680 C 303.190 64.348,301.480 63.797,300.600 63.456 C 299.314 62.957,297.067 62.832,289.149 62.818 L 279.297 62.800 277.620 60.626 C 275.055 57.301,266.964 49.650,265.078 48.766 C 264.155 48.334,262.950 47.729,262.400 47.422 C 261.850 47.116,260.500 46.467,259.400 45.980 C 258.300 45.493,256.680 44.716,255.800 44.253 C 253.542 43.064,237.688 42.724,234.800 43.802 C 233.810 44.172,232.132 44.721,231.070 45.022 C 227.819 45.945,223.097 48.446,221.400 50.142 C 221.039 50.504,220.495 50.800,220.192 50.800 C 219.228 50.800,211.258 58.812,210.779 60.264 C 210.536 60.999,210.202 61.600,210.035 61.600 C 209.570 61.600,206.800 65.778,206.800 66.480 C 206.800 66.822,206.542 67.316,206.228 67.577 C 205.913 67.838,205.466 68.936,205.234 70.015 C 205.003 71.095,204.450 72.656,204.007 73.483 C 203.220 74.952,203.200 75.676,203.200 103.294 L 203.200 131.600 200.008 131.600 L 196.815 131.600 196.708 102.842 C 196.610 76.698,196.540 74.016,195.936 73.342 C 195.570 72.934,195.144 71.743,194.989 70.695 C 194.835 69.648,194.399 68.388,194.022 67.895 C 193.645 67.403,193.207 66.640,193.049 66.200 C 191.710 62.466,182.948 52.282,179.900 50.918 C 179.075 50.548,178.400 50.118,178.400 49.963 C 178.400 49.288,170.735 45.200,169.470 45.200 C 168.985 45.200,167.871 44.797,166.994 44.305 C 165.454 43.440,150.589 42.807,146.800 43.445 M163.935 60.372 C 170.966 63.140,177.248 69.458,180.065 76.594 L 181.172 79.400 181.186 108.081 C 181.196 127.656,181.064 137.054,180.772 137.681 C 180.467 138.335,177.900 139.802,171.872 142.768 L 163.400 146.935 156.905 153.337 C 149.108 161.022,145.230 166.602,141.582 175.386 C 138.096 183.781,137.605 186.705,137.603 199.120 L 137.600 210.041 138.989 215.520 C 143.910 234.932,154.471 247.825,173.087 257.143 C 177.134 259.170,180.550 261.133,180.782 261.567 C 182.001 263.844,181.146 301.463,179.732 307.800 C 173.389 336.227,134.583 343.143,118.010 318.800 C 113.566 312.272,113.656 311.344,119.000 308.622 C 144.158 295.806,154.527 272.502,146.152 247.600 C 139.507 227.843,127.010 216.879,108.074 214.193 C 96.259 212.517,90.337 214.643,90.887 220.365 C 91.305 224.712,93.053 225.719,100.800 226.071 C 121.432 227.009,134.879 240.553,136.631 262.159 C 139.070 292.257,96.641 314.057,72.463 295.128 C 60.042 285.404,56.139 268.815,62.633 253.343 C 65.439 246.655,64.627 244.495,58.147 241.405 C 44.806 235.044,37.770 224.104,37.824 209.800 C 37.874 196.179,43.909 186.692,57.526 178.824 C 63.376 175.444,63.821 172.163,59.214 166.385 C 51.886 157.196,51.186 145.100,57.450 135.897 C 61.566 129.848,68.586 125.318,74.508 124.888 C 77.733 124.654,78.120 124.908,80.192 128.612 C 86.329 139.585,96.656 147.885,109.200 151.924 C 118.537 154.930,117.853 154.800,124.299 154.800 C 138.974 154.800,156.292 145.515,164.374 133.314 C 167.251 128.970,165.900 124.094,161.481 122.873 C 158.411 122.026,157.298 122.739,151.621 129.187 C 140.227 142.128,124.092 145.580,108.554 138.401 C 98.557 133.783,93.697 128.378,87.787 115.306 C 77.874 93.381,98.636 71.097,120.532 80.161 C 127.292 82.959,129.124 82.186,132.752 75.000 C 139.473 61.687,152.159 55.737,163.935 60.372 M249.342 59.402 C 256.946 61.382,263.362 67.040,267.463 75.382 C 270.679 81.923,272.937 82.922,278.837 80.411 C 290.995 75.238,304.961 79.694,311.505 90.833 C 318.277 102.361,314.447 118.065,301.718 130.959 C 292.726 140.069,283.738 140.905,269.261 133.980 C 262.159 130.583,259.658 130.712,257.384 134.592 C 254.446 139.604,258.543 143.773,270.577 148.016 C 291.093 155.249,305.193 149.701,319.136 128.906 C 321.889 124.799,322.281 124.569,325.957 124.903 C 333.815 125.615,342.846 133.489,345.625 142.050 C 348.454 150.765,346.580 159.076,339.837 167.715 C 335.932 172.719,337.054 175.890,344.102 179.758 C 366.645 192.132,368.695 223.886,347.867 238.084 C 336.294 245.973,306.318 243.725,293.175 233.981 C 280.981 224.942,274.560 208.439,276.982 192.367 C 277.770 187.146,276.881 184.661,273.760 183.358 C 269.076 181.400,265.710 184.223,264.550 191.082 C 262.063 205.778,267.078 223.740,276.966 235.561 C 279.389 238.459,279.237 238.668,272.814 241.273 C 260.407 246.305,249.320 258.118,244.943 270.970 C 243.018 276.623,245.180 281.200,249.773 281.200 C 252.037 281.200,256.000 278.309,256.000 276.657 C 256.000 275.790,259.483 268.929,261.226 266.362 C 269.994 253.451,286.991 246.659,299.800 250.949 C 308.428 253.838,321.346 255.513,331.054 255.000 C 338.170 254.625,338.391 254.776,339.838 261.000 C 345.540 285.524,322.127 307.719,297.181 301.440 C 291.342 299.970,289.157 301.344,287.193 307.719 C 279.175 333.736,249.168 342.458,229.850 324.387 C 220.481 315.623,218.800 308.795,218.800 279.505 C 218.800 258.883,218.016 261.294,225.965 257.482 C 238.753 251.349,246.810 243.861,254.457 231.000 C 257.899 225.211,258.296 224.168,261.162 213.400 C 262.107 209.852,262.574 198.881,262.066 192.200 C 261.476 184.452,257.071 171.236,253.600 166.800 C 252.997 166.030,252.010 164.410,251.406 163.200 C 247.760 155.897,230.621 142.321,222.175 140.047 C 218.681 139.106,219.014 142.241,218.888 109.132 L 218.776 79.800 219.793 76.997 C 224.267 64.671,238.054 56.461,249.342 59.402 M204.396 152.214 C 226.410 155.122,242.347 170.694,246.607 193.458 C 248.995 206.217,243.232 222.605,232.603 233.283 C 210.652 255.334,176.296 250.946,159.478 223.944 C 141.773 195.518,160.177 157.080,193.800 152.260 C 199.046 151.508,199.055 151.508,204.396 152.214 M196.691 158.907 C 190.963 160.779,190.629 161.998,190.463 181.600 C 190.220 210.254,189.492 209.416,213.800 208.449 C 219.740 208.213,225.269 207.828,226.088 207.594 C 232.598 205.734,233.721 195.079,227.794 191.400 L 225.861 190.200 217.432 190.159 L 209.004 190.119 209.123 180.159 C 209.300 165.293,208.543 161.912,204.537 159.699 C 202.549 158.601,198.788 158.222,196.691 158.907 " stroke="none" fill="#1c3c4f" fill-rule="evenodd"></path><path id="path1" d="M150.532 59.388 C 143.115 61.464,136.775 67.031,132.752 75.000 C 129.124 82.186,127.292 82.959,120.532 80.161 C 98.636 71.097,77.874 93.381,87.787 115.306 C 93.697 128.378,98.557 133.783,108.554 138.401 C 124.092 145.580,140.227 142.128,151.621 129.187 C 157.298 122.739,158.411 122.026,161.481 122.873 C 165.900 124.094,167.251 128.970,164.374 133.314 C 156.292 145.515,138.974 154.800,124.299 154.800 C 117.853 154.800,118.537 154.930,109.200 151.924 C 96.656 147.885,86.329 139.585,80.192 128.612 C 77.798 124.332,75.133 123.678,69.600 126.013 C 53.041 133.002,48.054 152.389,59.214 166.385 C 63.821 172.163,63.376 175.444,57.526 178.824 C 30.454 194.466,30.791 228.362,58.147 241.405 C 64.627 244.495,65.439 246.655,62.633 253.343 C 56.139 268.815,60.042 285.404,72.463 295.128 C 96.641 314.057,139.070 292.257,136.631 262.159 C 134.879 240.553,121.432 227.009,100.800 226.071 C 93.053 225.719,91.305 224.712,90.887 220.365 C 90.337 214.643,96.259 212.517,108.074 214.193 C 127.010 216.879,139.507 227.843,146.152 247.600 C 154.527 272.502,144.158 295.806,119.000 308.622 C 113.656 311.344,113.566 312.272,118.010 318.800 C 134.583 343.143,173.389 336.227,179.732 307.800 C 181.146 301.463,182.001 263.844,180.782 261.567 C 180.550 261.133,177.134 259.170,173.087 257.143 C 164.067 252.628,162.016 251.258,157.062 246.434 C 147.176 236.809,142.250 228.383,138.989 215.520 L 137.600 210.041 137.603 199.120 C 137.605 186.705,138.096 183.781,141.582 175.386 C 145.230 166.602,149.108 161.022,156.905 153.337 L 163.400 146.935 171.872 142.768 C 177.900 139.802,180.467 138.335,180.772 137.681 C 181.064 137.054,181.196 127.656,181.186 108.081 L 181.172 79.400 180.065 76.594 C 175.228 64.339,161.474 56.326,150.532 59.388 M239.000 59.395 C 230.563 61.683,222.754 68.839,219.793 76.997 L 218.776 79.800 218.888 109.132 C 219.014 142.241,218.681 139.106,222.175 140.047 C 230.621 142.321,247.760 155.897,251.406 163.200 C 252.010 164.410,252.997 166.030,253.600 166.800 C 257.071 171.236,261.476 184.452,262.066 192.200 C 262.574 198.881,262.107 209.852,261.162 213.400 C 258.296 224.168,257.899 225.211,254.457 231.000 C 246.810 243.861,238.753 251.349,225.965 257.482 C 218.016 261.294,218.800 258.883,218.800 279.505 C 218.800 308.795,220.481 315.623,229.850 324.387 C 249.168 342.458,279.175 333.736,287.193 307.719 C 289.157 301.344,291.342 299.970,297.181 301.440 C 322.127 307.719,345.540 285.524,339.838 261.000 C 338.391 254.776,338.170 254.625,331.054 255.000 C 321.346 255.513,308.428 253.838,299.800 250.949 C 286.991 246.659,269.994 253.451,261.226 266.362 C 259.483 268.929,256.000 275.790,256.000 276.657 C 256.000 279.476,250.397 281.996,247.347 280.548 C 236.808 275.547,254.115 248.856,272.814 241.273 C 279.237 238.668,279.389 238.459,276.966 235.561 C 262.599 218.387,258.692 182.800,271.173 182.800 C 275.898 182.800,277.922 186.133,276.982 192.367 C 274.560 208.439,280.981 224.942,293.175 233.981 C 306.318 243.725,336.294 245.973,347.867 238.084 C 368.695 223.886,366.645 192.132,344.102 179.758 C 337.054 175.890,335.932 172.719,339.837 167.715 C 346.580 159.076,348.454 150.765,345.625 142.050 C 342.846 133.489,333.815 125.615,325.957 124.903 C 322.281 124.569,321.889 124.799,319.136 128.906 C 305.193 149.701,291.093 155.249,270.577 148.016 C 258.543 143.773,254.446 139.604,257.384 134.592 C 259.658 130.712,262.159 130.583,269.261 133.980 C 283.738 140.905,292.726 140.069,301.718 130.959 C 314.447 118.065,318.277 102.361,311.505 90.833 C 304.961 79.694,290.995 75.238,278.837 80.411 C 272.937 82.922,270.679 81.923,267.463 75.382 C 261.422 63.094,249.680 56.499,239.000 59.395 " stroke="none" fill="#ff918c" fill-rule="evenodd"></path></g></svg>